<svg viewBox="0 0 128 128" xmlns="http://www.w3.org/2000/svg" id="technology">
  <defs>
  <style>
    @media(prefers-color-scheme: dark) {
      :root { --color-logo-shape: #000000; --color-logo-base: #ffffff; }
    }
    body[data-color-scheme="dark"] {
      --color-logo-shape: #000000; --color-logo-base: #ffffff;
    }
  </style>
  <path id="surface" d="m 6,47 l 58,-47 58,47 -58,45 z"/>
  <path id="strut"   d="m 6,47 v 12 l 58,45 v -12 z"/>
  <path id="shape"   d="m70.7,24.8-9.1,7.2-3.9-3.1c-.7-.6-1.9-.6-2.6,0l-12.3,9.7c-.7.6-.8,1.5-.1,2.1l3.9,3.1-9.6,7.6c-1.6,1.2-1.8,2.6-.6,3.5l2.3,1.8,38.7-30.6-2.1-1.7c-1.2-1-3.2-.8-4.6.3zm8.6,2.8-38.8,30.7,16.5,13.2c1,.8,2.3.9,3.5-.1l35.2-27.9c1.3-1,.8-2.1.1-2.7zm-22.9,4.4,2.5,2-9.7,7.7-2.6-2zm12.3,7.1c-.2.2,0,.3.3.3-.8.5-1.2.9-.9,1.2,1,.9,2.9-.1,4,3,.2.3.4-.5.6-1.7.2.2.3.6.3,1.3,0,0,.6-2,.7-2,1.2,2.2-.9,3.3-1.7,4.6-2.4,3.8,2,6.2,2.7,6.1,1.6.5.2,1.3,1.6,1.8.3.2-.2.6-1.6,1,.1.3.3.4.4.3,2.3.7.3,1.2-.5,1.4-.4-.2-.7-.5-.9-1-.8-.8-1.8-1.5-3.1-2.3-.7.2-1.4.8-2,1.8.8.5,1.5,1.2,2.1,1.7,1.1.1,1.4.3,1,.7-.4.4-.9.7-1.4.9-.3.1-1.1-.5-2.2-1.6.5.7,1,1.5,1.4,2.5,2.1,0,.3,1.3.1,1.4-.5.4-.9.4-1.3-.1-.9-1.9-4.6-3.4-5.3-3.7.3.2.6,1.3.5,1.8-.1-.8-.5-1.4-.9-2-.3-.6-2.4-4.1,4-7,1.1-.3-3.3-.7.8-3.1,0-.7.9-1.5,2.9-2.4.6-1.8-1.5-2-2.6-2.8-.3-.4-.5-1.3.9-2,0,0,0-.2.1-.2zm3.6,13.4c.5.4.8.8,1,1,.2-.3-.1-.7-1-1z"/>
  </defs>
  <use href="#strut" fill="#9ee0ff"/>
  <use href="#strut" fill="#6bd0ff" y="12"/>
  <use href="#strut" fill="#38c0ff" y="24"/>
  <g transform="matrix(-1 0 0 1 128 0)">
    <use href="#strut" fill="#f29eff"/>
    <use href="#strut" fill="#eb6bff" y="12"/>
    <use href="#strut" fill="#e438ff" y="24"/>
  </g>
  <use href="#surface" style="fill: var(--color-logo-base, #000000);"/>
  <use href="#shape" style="fill: var(--color-logo-shape, #ffffff);"/>
</svg>
