<svg viewBox="0 0 128 128" xmlns="http://www.w3.org/2000/svg" id="technology">
  <defs>
  <style>
    @media(prefers-color-scheme:dark){:root{--color-logo-shape:#000;--color-logo-base:#fff;}}
    body[data-color-scheme="dark"]{--color-logo-shape:#000;--color-logo-base:#fff;}
    #d{fill:var(--color-logo-base,#000)}#h{fill:var(--color-logo-shape,#fff)}
  </style>
  <path id="d" d="m6,47l58-47,58,47-58,45z"/>
  <path id="s" d="m6,47v12l58,45v-12z"/>
  <path id="h" d="m73.86,21.06c-.9.04-1.9.38-2.8,1.1l.03-.03-10.1,8.07-4.3-3.4c-.8-.64-2.1-.6-2.9.03l-13.66,10.9c-.8.65-.8,1.7-.03,2.3l4.3,3.4-10.67,8.5c-1.7,1.34-1.87,2.9-.6,3.9l2.54,2,42.9-34.23-2.34-1.85c-.6-.5-1.44-.76-2.35-.7zm6.83,4.2-42.95,34.26,18.4,14.6c1.1.9,2.5,1.03,3.9-.1l39-31.1c1.4-1.1.86-2.43.05-3.07zm-25.5,5,2.86,2.26-10.74,8.57-2.86-2.26zm13.7,7.8c-.1.23.07.34.46.34-1,.54-1.38,1-1.04,1.4,1.06,1,3.2-.1,4.46,3.27.2.4.46-.56.6-1.9.3.2.4.66.4,1.43,0,0,.66-2.23.7-2.17,1.4,2.4-.9,3.6-1.8,5.07-2.64,4.3,2.26,6.87,3.03,6.74,1.73.6.2,1.5,1.77,2,.3.26-.27.66-1.76,1.16.13.3.27.4.4.3,2.63.75.4,1.36-.55,1.5-.4-.17-.8-.54-1-1.1-.9-.83-2-1.67-3.45-2.5-.8.25-1.5.9-2.15,2.03.9.6,1.7,1.3,2.34,1.94,1.16.05,1.5.3,1.05.8-.45.4-.96.74-1.5,1-.35.05-1.2-.6-2.5-1.76.6.76,1.16,1.67,1.63,2.73,2.3,0,.35,1.43.1,1.56-.6.46-1.06.43-1.43-.1-1-2.13-5.2-3.8-5.9-4.07.27.2.66,1.4.54,2-.15-.85-.54-1.55-1.03-2.26-.4-.6-2.7-4.5,4.33-7.73,1.3-.4-3.64-.83.85-3.5.05-.7,1-1.6,3.2-2.65.74-1.96-1.7-2.2-2.83-3.14-.4-.4-.6-1.44.93-2.2,0,0,.04-.17.14-.2zm4.1,14.9c.54.5.9.85,1.1,1.1.3-.36-.1-.74-1.1-1.1z"/>
  </defs>
  <use href="#s" fill="#38c0ff" y="24"/>
  <use href="#s" fill="#6bd0ff" y="12"/>
  <use href="#s" fill="#9ee0ff"/>
  <g transform="matrix(-1 0 0 1 128 0)">
    <use href="#s" fill="#e438ff" y="24"/>
    <use href="#s" fill="#eb6bff" y="12"/>
    <use href="#s" fill="#f29eff"/>
  </g>
  <use href="#d"/>
  <use href="#h"/>
</svg>
